<svg height="417.696pt" viewBox="0 0 417.696 417.696" width="417.696pt" xmlns="http://www.w3.org/2000/svg"><path d="m417.695312 25.25c0 13.945312-11.304687 25.253906-25.25 25.253906-13.945312 0-25.25-11.308594-25.25-25.253906s11.304688-25.25 25.25-25.25c13.945313 0 25.25 11.304688 25.25 25.25zm0 0" fill="#00efd1"/><g fill="#fedb41"><path d="m336.410156 81.285156 51.96875 51.972656-76.1875 19.617188-47.371094-47.367188 19.621094-76.191406zm0 0"/><path d="m49.769531 292.265625 35.351563-35.347656 75.65625 75.65625-35.347656 35.351562zm0 0"/><path d="m336.128906 89.566406c-3.230468 0-6.148437-1.945312-7.386718-4.933594-1.242188-2.984374-.5625-6.421874 1.722656-8.714843l37.488281-37.488281c3.125-3.125 8.191406-3.125 11.316406 0s3.121094 8.191406-.003906 11.316406l-37.46875 37.46875c-1.5 1.507812-3.539063 2.355468-5.667969 2.351562zm0 0"/><path d="m184.199219 165.484375c-2.121094.003906-4.15625-.839844-5.65625-2.339844l-20.859375-20.863281c-3.125-3.121094-3.125-8.1875 0-11.3125s8.1875-3.125 11.3125 0l20.859375 20.859375c2.289062 2.289063 2.972656 5.730469 1.734375 8.71875-1.238282 2.988281-4.152344 4.9375-7.390625 4.9375zm0 0"/><path d="m146.730469 202.957031c-2.121094 0-4.160157-.839843-5.65625-2.34375l-20.863281-20.859375c-3.125-3.125-3.121094-8.191406 0-11.316406 3.125-3.125 8.191406-3.125 11.316406 0l20.859375 20.863281c2.289062 2.285157 2.972656 5.726563 1.734375 8.714844-1.238282 2.992187-4.15625 4.941406-7.390625 4.941406zm0 0"/><path d="m243.601562 299.824219c-2.125.003906-4.160156-.839844-5.660156-2.339844l-20.859375-20.863281c-3.125-3.121094-3.125-8.1875 0-11.3125s8.191407-3.125 11.316407 0l20.859374 20.859375c2.289063 2.289062 2.972657 5.730469 1.734376 8.71875-1.238282 2.992187-4.15625 4.9375-7.390626 4.9375zm0 0"/><path d="m281.070312 262.355469c-2.121093.003906-4.160156-.839844-5.660156-2.34375l-20.859375-20.859375c-3.125-3.125-3.125-8.191406 0-11.3125 3.125-3.125 8.191407-3.125 11.3125 0l20.859375 20.859375c2.289063 2.289062 2.972656 5.730469 1.734375 8.71875s-4.152343 4.9375-7.390625 4.9375zm0 0"/></g><path d="m406.941406 351.9375-65.761718 65.757812-111.371094-111.371093 14.152344-14.136719 37.46875-37.472656 14.140624-14.148438zm0 0" fill="#00acea"/><path d="m307.679688 185.675781-47.640626 47.648438-37.46875 37.472656-61.789062 61.777344-75.660156-75.660157 61.789062-61.777343 37.46875-37.472657 47.640625-47.648437zm0 0" fill="#00efd1"/><path d="m177.128906 122.125-14.140625 14.152344-37.46875 37.46875-14.148437 14.140625-111.371094-111.371094 65.761719-65.757813zm0 0" fill="#00acea"/></svg>