<svg xmlns="http://www.w3.org/2000/svg" height="472pt" version="1.1" viewBox="-44 0 472 472" width="472pt">
<g id="surface1">
<path d="M 240 48 C 240 39.164062 232.835938 32 224 32 L 160 32 C 151.164062 32 144 39.164062 144 48 C 144 56.835938 151.164062 64 160 64 L 224 64 C 232.835938 64 240 56.835938 240 48 Z M 240 48 " style=" stroke:none;fill-rule:nonzero;fill:rgb(57.647059%,58.431373%,59.607843%);fill-opacity:1;" />
<path d="M 240 80 C 240 71.164062 232.835938 64 224 64 L 160 64 C 151.164062 64 144 71.164062 144 80 C 144 88.835938 151.164062 96 160 96 L 224 96 C 232.835938 96 240 88.835938 240 80 Z M 240 80 " style=" stroke:none;fill-rule:nonzero;fill:rgb(50.196078%,50.980392%,52.156863%);fill-opacity:1;" />
<path d="M 144 112 L 144 128 L 240 128 L 240 112 C 240 103.164062 232.835938 96 224 96 L 160 96 C 151.164062 96 144 103.164062 144 112 Z M 144 112 " style=" stroke:none;fill-rule:nonzero;fill:rgb(42.745098%,43.137255%,44.313725%);fill-opacity:1;" />
<path d="M 192 0 C 174.328125 0 160 14.328125 160 32 L 224 32 C 224 14.328125 209.671875 0 192 0 Z M 192 0 " style=" stroke:none;fill-rule:nonzero;fill:rgb(100%,71.372549%,33.333333%);fill-opacity:1;" />
<path d="M 144 128 C 135.175781 128.027344 128.027344 135.175781 128 144 L 128 162.761719 C 127.863281 172.324219 123.429688 181.316406 115.929688 187.246094 C 76.714844 219.351562 61.929688 272.648438 79.003906 320.363281 C 96.078125 368.078125 141.320312 399.898438 192 399.832031 L 192 128 Z M 144 128 " style=" stroke:none;fill-rule:nonzero;fill:rgb(100%,65.490196%,20%);fill-opacity:1;" />
<path d="M 267.457031 186.753906 C 260.082031 180.59375 255.875 171.445312 256 161.839844 L 256 144 C 255.972656 135.175781 248.824219 128.027344 240 128 L 192 128 L 192 399.832031 C 193.953125 399.832031 195.871094 399.953125 197.839844 399.832031 C 261.253906 396.242188 311.101562 344.238281 312 280.726562 C 312.265625 244.246094 295.863281 209.640625 267.457031 186.753906 Z M 267.457031 186.753906 " style=" stroke:none;fill-rule:nonzero;fill:rgb(100%,71.372549%,33.333333%);fill-opacity:1;" />
<path d="M 192 472 C 187.582031 472 184 468.417969 184 464 L 184 432 C 184 427.582031 187.582031 424 192 424 C 196.417969 424 200 427.582031 200 432 L 200 464 C 200 468.417969 196.417969 472 192 472 Z M 192 472 " style=" stroke:none;fill-rule:nonzero;fill:rgb(100%,76.862745%,46.666667%);fill-opacity:1;" />
<path d="M 100 447.34375 C 97.144531 447.339844 94.503906 445.816406 93.078125 443.339844 C 91.652344 440.867188 91.652344 437.816406 93.078125 435.34375 L 109.078125 407.640625 C 110.5 405.144531 113.144531 403.601562 116.015625 403.59375 C 118.886719 403.585938 121.542969 405.121094 122.972656 407.609375 C 124.402344 410.097656 124.386719 413.164062 122.9375 415.640625 L 106.9375 443.34375 C 105.503906 445.820312 102.859375 447.347656 100 447.34375 Z M 100 447.34375 " style=" stroke:none;fill-rule:nonzero;fill:rgb(100%,76.862745%,46.666667%);fill-opacity:1;" />
<path d="M 32.664062 380 C 29.042969 380 25.875 377.566406 24.9375 374.070312 C 24 370.574219 25.527344 366.882812 28.664062 365.070312 L 56.367188 349.070312 C 58.84375 347.621094 61.910156 347.605469 64.398438 349.035156 C 66.886719 350.464844 68.421875 353.121094 68.414062 355.992188 C 68.40625 358.863281 66.863281 361.507812 64.367188 362.929688 L 36.664062 378.929688 C 35.449219 379.628906 34.066406 380 32.664062 380 Z M 32.664062 380 " style=" stroke:none;fill-rule:nonzero;fill:rgb(100%,76.862745%,46.666667%);fill-opacity:1;" />
<path d="M 40 288 L 8 288 C 3.582031 288 0 284.417969 0 280 C 0 275.582031 3.582031 272 8 272 L 40 272 C 44.417969 272 48 275.582031 48 280 C 48 284.417969 44.417969 288 40 288 Z M 40 288 " style=" stroke:none;fill-rule:nonzero;fill:rgb(100%,76.862745%,46.666667%);fill-opacity:1;" />
<path d="M 60.351562 212 C 58.949219 212 57.566406 211.628906 56.351562 210.929688 L 28.648438 194.929688 C 26.152344 193.507812 24.609375 190.863281 24.601562 187.992188 C 24.597656 185.121094 26.128906 182.464844 28.617188 181.035156 C 31.105469 179.605469 34.171875 179.621094 36.648438 181.070312 L 64.351562 197.070312 C 67.488281 198.882812 69.015625 202.574219 68.078125 206.070312 C 67.140625 209.566406 63.972656 212 60.351562 212 Z M 60.351562 212 " style=" stroke:none;fill-rule:nonzero;fill:rgb(100%,76.862745%,46.666667%);fill-opacity:1;" />
<path d="M 323.648438 212 C 320.027344 212 316.859375 209.566406 315.921875 206.070312 C 314.984375 202.574219 316.511719 198.882812 319.648438 197.070312 L 347.351562 181.070312 C 349.828125 179.621094 352.894531 179.605469 355.382812 181.035156 C 357.871094 182.464844 359.402344 185.121094 359.398438 187.992188 C 359.390625 190.863281 357.847656 193.507812 355.351562 194.929688 L 327.648438 210.929688 C 326.433594 211.628906 325.050781 212 323.648438 212 Z M 323.648438 212 " style=" stroke:none;fill-rule:nonzero;fill:rgb(100%,76.862745%,46.666667%);fill-opacity:1;" />
<path d="M 376 288 L 344 288 C 339.582031 288 336 284.417969 336 280 C 336 275.582031 339.582031 272 344 272 L 376 272 C 380.417969 272 384 275.582031 384 280 C 384 284.417969 380.417969 288 376 288 Z M 376 288 " style=" stroke:none;fill-rule:nonzero;fill:rgb(100%,76.862745%,46.666667%);fill-opacity:1;" />
<path d="M 351.335938 380 C 349.933594 380 348.550781 379.628906 347.335938 378.929688 L 319.632812 362.929688 C 317.136719 361.507812 315.59375 358.863281 315.585938 355.992188 C 315.578125 353.121094 317.113281 350.464844 319.601562 349.035156 C 322.089844 347.605469 325.15625 347.621094 327.632812 349.070312 L 355.335938 365.070312 C 358.472656 366.882812 360 370.574219 359.0625 374.070312 C 358.125 377.566406 354.957031 380 351.335938 380 Z M 351.335938 380 " style=" stroke:none;fill-rule:nonzero;fill:rgb(100%,76.862745%,46.666667%);fill-opacity:1;" />
<path d="M 284 447.34375 C 281.140625 447.347656 278.496094 445.820312 277.0625 443.34375 L 261.0625 415.640625 C 259.613281 413.164062 259.597656 410.097656 261.027344 407.609375 C 262.457031 405.121094 265.113281 403.585938 267.984375 403.59375 C 270.855469 403.601562 273.5 405.144531 274.921875 407.640625 L 290.921875 435.34375 C 292.347656 437.816406 292.347656 440.867188 290.921875 443.339844 C 289.496094 445.816406 286.855469 447.339844 284 447.34375 Z M 284 447.34375 " style=" stroke:none;fill-rule:nonzero;fill:rgb(100%,76.862745%,46.666667%);fill-opacity:1;" />
</g>
</svg>